<svg xmlns="http://www.w3.org/2000/svg" width="77.013" height="110.448" viewBox="0 0 77.013 110.448">
  <defs>
    <style>
      .cls-1 {
        fill: #c5d2ff;
      }

      .cls-2 {
        fill: #b9783d;
      }

      .cls-3 {
        fill: #965028;
      }

      .cls-4 {
        fill: #80391b;
      }

      .cls-5 {
        fill: #ff5a5f;
      }

      .cls-6 {
        fill: #6e96dc;
      }

      .cls-7 {
        fill: #3caf96;
      }

      .cls-8 {
        fill: #9bb9c3;
      }

      .cls-9 {
        fill: #87a0af;
      }

      .cls-10 {
        fill: #fff5af;
      }

      .cls-11 {
        fill: #e6b464;
      }
    </style>
  </defs>
  <g id="brush" transform="translate(-17.724)">
    <path id="Path_1" data-name="Path 1" class="cls-1" d="M55.224,0Z"/>
    <path id="Path_2" data-name="Path 2" class="cls-2" d="M177.2,158.562l-7.848,21.562-5.818,15.985-6.5,17.845a6.275,6.275,0,0,1-8.907,3.354,6.3,6.3,0,0,1-.834.374h0a6.27,6.27,0,0,1-8.036-3.747L119.1,158.543a5.872,5.872,0,0,1,3.51-7.527l.747-.272a5.872,5.872,0,0,1,7.527,3.51l7.848,21.562,3.351,9.208V151.5a5.872,5.872,0,0,1,5.872-5.873h.8a5.872,5.872,0,0,1,5.873,5.873v32.421l10.792-29.65a5.872,5.872,0,0,1,7.527-3.51l.747.272A5.872,5.872,0,0,1,177.2,158.562Z" transform="translate(-93.126 -114.214)"/>
    <path id="Path_3" data-name="Path 3" class="cls-3" d="M176.022,152.369a6.27,6.27,0,0,0-5.329,4.1l-20.025,55.018a6.236,6.236,0,0,0-.029,4.2,6.275,6.275,0,0,0,.785.441c-.168.079-.341.149-.517.213a6.29,6.29,0,0,0,1.207,1.717,6.244,6.244,0,0,1-2.707-.353h0a6.32,6.32,0,0,1-.872-.394,6.268,6.268,0,0,1-.832.375h0a6.27,6.27,0,0,1-8.036-3.747l-20.025-55.018a6.27,6.27,0,0,1,3.747-8.036h0a6.244,6.244,0,0,1,2.707-.353,6.27,6.27,0,0,0-1.447,6.567l17.839,49.013V151.9a6.27,6.27,0,0,1,6.27-6.27h0a6.243,6.243,0,0,1,2.665.594,6.27,6.27,0,0,0-3.605,5.676v51.834l17.866-49.087a6.27,6.27,0,0,1,8.036-3.747h0A6.245,6.245,0,0,1,176.022,152.369Z" transform="translate(-93.534 -114.214)"/>
    <path id="Path_4" data-name="Path 4" class="cls-4" d="M133.25,9.364l-2.165,7.677-3.237,9.754a33.026,33.026,0,0,0-13.465,0l-3.2-9.64L109.33,9.364a3.474,3.474,0,0,1,1.323-3.97c3.193-2.166,6.313-2.893,10.462-2.893s7.619.727,10.811,2.893A3.474,3.474,0,0,1,133.25,9.364Zm23.082,2.9a.648.648,0,0,0-.011-.375c-.15-.576.226-1.049-.259-.7l-12.674,9.546c-1.352.962-2.914,1.582-3.708,2.942a11.4,11.4,0,0,0-.49,10.575h0a11.4,11.4,0,0,0,15.153,5.515h0a10.27,10.27,0,0,0,4.549-3.834,11.633,11.633,0,0,0,1.736-6.03C160.7,23.082,154.479,17.507,156.332,12.261Zm-70.81-1.672c-1.4,5.123-2.214,12.348-.672,18.729a32.424,32.424,0,0,0,1.025,3.447c2.34,6.429,5.578,7.2,11.329,9.867,2.689-5.742,4.676-8.412,2.336-14.84a24.232,24.232,0,0,0-1.463-3.363A41.683,41.683,0,0,0,85.522,10.589Z" transform="translate(-65.891 -1.961)"/>
    <path id="Path_5" data-name="Path 5" class="cls-5" d="M222.356,7.4l-2.738,8.25a2.494,2.494,0,0,1-2.072-1.931V8.506a2.5,2.5,0,0,0-2.5-2.5h-.189a2.5,2.5,0,0,0-2.5,2.5v.447a2.5,2.5,0,0,1-2.433,1.944h-.189a2.5,2.5,0,0,1-2.433-1.944V8.506a2.5,2.5,0,0,0-2.5-2.5h-.189a2.5,2.5,0,0,0-2.5,2.5v5.216a2.493,2.493,0,0,1-2.072,1.931L197.321,7.4a3.474,3.474,0,0,1,1.323-3.97,19.97,19.97,0,0,1,22.39,0A3.474,3.474,0,0,1,222.356,7.4Z" transform="translate(-154.614)"/>
    <path id="Path_6" data-name="Path 6" class="cls-6" d="M362.373,59.88a2.284,2.284,0,0,1-2.065.257h0a2.289,2.289,0,0,1-1.486-2.448l.17-.467a2.289,2.289,0,0,0-1.368-2.934h0a2.289,2.289,0,0,0-2.934,1.368l-2.258,6.2a2.288,2.288,0,0,1-4.2-1.528l2.258-6.2a2.289,2.289,0,1,0-4.3-1.566l-.692,1.9a2.288,2.288,0,0,1-4.216-1.162,11.368,11.368,0,0,1,3.4-3.837L357.6,40.055a.85.85,0,0,1,1.316.479.646.646,0,0,1,.011.375C357.015,46.321,362.821,52.811,362.373,59.88Z" transform="translate(-267.662 -31.29)"/>
    <path id="Path_7" data-name="Path 7" class="cls-7" d="M92.435,52.824l-1.584-4.353a2.383,2.383,0,0,0-4.479,1.63l1.584,4.353a2.38,2.38,0,0,1-4.5,1.361C81.865,49.408,81.5,40.864,83.775,36h0c4.873,2.262,10.083,9.044,12.984,14.974a2.38,2.38,0,0,1-4.323,1.852Z" transform="translate(-64.44 -28.233)"/>
    <path id="Path_8" data-name="Path 8" class="cls-8" d="M187.637,294.761l-3.68,40.476a55.343,55.343,0,0,1-44.494,0l-3.68-40.476a2.01,2.01,0,0,1,2-2.192h47.85A2.01,2.01,0,0,1,187.637,294.761Z" transform="translate(-106.486 -229.456)"/>
    <path id="Path_9" data-name="Path 9" class="cls-9" d="M184.226,332.28l-.269,2.956a55.341,55.341,0,0,1-44.493,0l-3.68-40.476a2.01,2.01,0,0,1,2-2.192h5.379c0,.175-.006.349-.006.524,0,22.041,15.453,39.908,34.515,39.908A30.154,30.154,0,0,0,184.226,332.28Z" transform="translate(-106.486 -229.456)"/>
    <path id="Path_10" data-name="Path 10" class="cls-10" d="M171.307,119.46h0c-.054.148-.111.294-.17.439l.009,0-4.289,11.784h0l-.061.167-11.784-4.289,1.456-4,2.894-7.951.009,0c.048-.149.1-.3.152-.445h0c.3-.813,3.174-.513,6.428.672S171.6,118.647,171.307,119.46Zm-46.651,6.985-4.289-11.784-.009,0c-.048-.149-.1-.3-.152-.445h0c-.3-.813-3.174-.513-6.428.672s-5.652,2.8-5.356,3.618h0c.054.148.111.293.17.439l-.009,0,2.894,7.951,1.456,4,11.784-4.289-.061-.167Zm22.615-22.114a32.462,32.462,0,0,0-14.066,0,.791.791,0,0,0-.565.912l1.243,6.588.085,8.115V124.2h12.54v-.177l.085-12.194,1.243-6.588A.791.791,0,0,0,147.271,104.331Z" transform="translate(-85.014 -81.22)"/>
    <path id="Path_11" data-name="Path 11" class="cls-11" d="M167.618,122.462l-.013.034a1.553,1.553,0,0,1-1.9.953q-.2-.059-.4-.132l-2.6-.946-.613,1.686,2.6.946q.116.042.231.079a1.557,1.557,0,0,1,1.01,2.011l-.013.034a1.553,1.553,0,0,1-1.9.953q-.2-.059-.4-.132l-2.6-.946-.946,2.6-5.059-1.841,1.456-4,.1-.285,1.072-2.946,1.718-4.719.009,0c.048-.149.1-.3.152-.445h0c.3-.813,3.174-.513,6.428.672a23.016,23.016,0,0,1,2.478,1.063c-2.074-.487-3.633-.48-3.847.107h0c-.054.148-.1.3-.152.445l-.009,0-.645,1.774,2.6.946q.116.042.231.079A1.557,1.557,0,0,1,167.618,122.462Zm-46.749,1.106a1.557,1.557,0,0,0-2.066-.891q-.113.046-.228.088l-2.6.946-.614-1.686,2.6-.946q.2-.073.394-.158a1.553,1.553,0,0,0,.841-1.95l-.013-.034a1.556,1.556,0,0,0-2.066-.891q-.113.046-.228.088l-2.6.946-.645-1.774.009,0c-.059-.145-.116-.291-.17-.439h0c-.214-.587.976-1.594,2.878-2.554a22.978,22.978,0,0,0-2.582.778c-3.254,1.184-5.652,2.8-5.356,3.618.054.148.111.293.17.439l-.009,0,1.718,4.719.549,1.507.627,1.724,1.456,4,5.059-1.841-.946-2.6,2.6-.946q.2-.073.394-.158a1.553,1.553,0,0,0,.841-1.95Zm21.5-10q-.122,0-.245,0h-2.767v-3.909c-.022,0-1.148-5.849-1.148-5.849a24.99,24.99,0,0,0-5,.717.791.791,0,0,0-.565.912l1.243,6.588.085,4.677V124.4h5.384v-2.766h2.767q.214,0,.424-.014A1.553,1.553,0,0,0,144,120.075v-.036a1.557,1.557,0,0,0-1.636-1.544q-.122,0-.245,0h-2.767v-1.794h2.767q.214,0,.424-.014A1.553,1.553,0,0,0,144,115.146v-.036A1.557,1.557,0,0,0,142.365,113.565Z" transform="translate(-85.015 -81.418)"/>
  </g>
</svg>
