<svg xmlns="http://www.w3.org/2000/svg" width="106.927" height="95.955" viewBox="0 0 106.927 95.955">
  <defs>
    <style>
      .cls-1 {
        fill: #ff5858;
      }

      .cls-2 {
        fill: #5e81f5;
      }
    </style>
  </defs>
  <g id="limited_1_" data-name="limited (1)" transform="translate(-131 92.731)">
    <g id="Group_3" data-name="Group 3" transform="translate(131 -92.731)">
      <path id="Path_12" data-name="Path 12" class="cls-1" d="M49.251,274.784l-4.362,1.169V262.92a1.946,1.946,0,0,0-3.892,0v15.57a1.946,1.946,0,0,0,2.45,1.88l6.812-1.825a1.946,1.946,0,0,0-1.007-3.76Z" transform="translate(-33.018 -211.038)"/>
      <path id="Path_13" data-name="Path 13" class="cls-1" d="M112.944,242.175A1.946,1.946,0,0,0,111,244.121v15.57a1.946,1.946,0,0,0,3.892,0v-15.57a1.946,1.946,0,0,0-1.946-1.946Z" transform="translate(-87.753 -196.231)"/>
      <path id="Path_14" data-name="Path 14" class="cls-1" d="M159.157,218.127a1.947,1.947,0,0,0-2.189.9L153,225.855l-3.57-4.236A1.946,1.946,0,0,0,146,222.874v15.57a1.946,1.946,0,0,0,3.892,0V228.2l1.918,2.276a1.946,1.946,0,0,0,3.171-.277l1.722-2.967v8.341a1.946,1.946,0,0,0,3.892,0v-15.57a1.946,1.946,0,0,0-1.44-1.879Z" transform="translate(-115.154 -177.099)"/>
      <path id="Path_15" data-name="Path 15" class="cls-1" d="M237.947,208.681A1.946,1.946,0,0,0,236,210.627V226.2a1.946,1.946,0,0,0,3.892,0v-15.57A1.946,1.946,0,0,0,237.947,208.681Z" transform="translate(-186.578 -169.865)"/>
      <path id="Path_16" data-name="Path 16" class="cls-1" d="M279.279,189.988l-6.812,1.825a1.946,1.946,0,0,0,1.007,3.76l.956-.256V208.35a1.946,1.946,0,0,0,3.892,0V194.274l1.963-.526a1.946,1.946,0,1,0-1.007-3.76Z" transform="translate(-213.964 -155.057)"/>
      <path id="Path_17" data-name="Path 17" class="cls-1" d="M350.266,174.99a1.946,1.946,0,0,0-1.007-3.76l-6.812,1.825a1.946,1.946,0,0,0-1.443,1.88V190.5a1.946,1.946,0,0,0,2.45,1.88l6.812-1.825a1.946,1.946,0,0,0-1.007-3.76l-4.362,1.169v-3.755l2.645-.709a1.946,1.946,0,0,0-1.007-3.76l-1.637.439v-3.755Z" transform="translate(-269.205 -140.259)"/>
      <path id="Path_18" data-name="Path 18" class="cls-1" d="M420.729,156.762a5.011,5.011,0,0,0-4.389-.786l-3.892,1.043a1.946,1.946,0,0,0-1.443,1.88v15.57a1.946,1.946,0,0,0,2.45,1.88l3.892-1.043a7.594,7.594,0,0,0,5.335-7.095v-7.226A5.232,5.232,0,0,0,420.729,156.762Zm-1.939,11.448a3.749,3.749,0,0,1-2.45,3.335l-1.442.387v-11.54l2.45-.656a1.17,1.17,0,0,1,1.012.115,1.406,1.406,0,0,1,.431,1.134Z" transform="translate(-323.734 -128.183)"/>
      <path id="Path_19" data-name="Path 19" class="cls-2" d="M104.916,43.611A5.152,5.152,0,0,0,100.4,42.8l-8.729,2.339c-26.173-34-80.218-19.479-85.854,23l-.374.1A7.748,7.748,0,0,0,0,75.481v25.061a5.377,5.377,0,0,0,2.011,4.338,4.964,4.964,0,0,0,3.043,1.009,5.7,5.7,0,0,0,1.472-.2l8.729-2.339c26.173,34,80.218,19.479,85.854-23l.374-.1a7.749,7.749,0,0,0,5.445-7.238V47.95a5.376,5.376,0,0,0-2.011-4.338ZM53.464,30.39A44.015,44.015,0,0,1,87.275,46.317l-4.487,1.2c-11.329-12.743-30.953-16.634-46.28-9.157a2.088,2.088,0,0,0,1.787,3.775,35.667,35.667,0,0,1,39.877,6.619L19.307,64.529a35.1,35.1,0,0,1,5.43-11.143,2.088,2.088,0,0,0-3.378-2.457A39.215,39.215,0,0,0,14.7,65.765l-4.486,1.2A43.684,43.684,0,0,1,53.464,30.39Zm0,87.713a44.014,44.014,0,0,1-33.811-15.928l4.486-1.2C45.476,124.716,85.663,113.9,92.231,82.727l4.485-1.2A43.683,43.683,0,0,1,53.464,118.1ZM28.755,99.736,87.619,83.964C80.648,109.478,47.673,118.426,28.755,99.736ZM102.75,73.011a3.6,3.6,0,0,1-2.349,3.2L5.445,101.658a1.04,1.04,0,0,1-.892-.091,1.274,1.274,0,0,1-.377-1.025V75.481a3.6,3.6,0,0,1,2.349-3.2l94.957-25.443a1.04,1.04,0,0,1,.892.091,1.274,1.274,0,0,1,.377,1.025Z" transform="translate(0 -26.269)"/>
      <path id="Path_20" data-name="Path 20" class="cls-2" d="M133.132,111.3a1.946,1.946,0,0,0,0-3.892h0A1.946,1.946,0,0,0,133.132,111.3Z" transform="translate(-103.721 -90.411)"/>
    </g>
  </g>
</svg>
