<svg xmlns="http://www.w3.org/2000/svg" width="94.267" height="109.89" viewBox="0 0 94.267 109.89">
  <defs>
    <style>
      .cls-1 {
        fill: #5e81f5;
      }
    </style>
  </defs>
  <g id="premium" transform="translate(-36.395 0)">
    <path id="Path_21" data-name="Path 21" class="cls-1" d="M121.45,109.318a3.286,3.286,0,0,0-2.838-1.638h-55.8a3.285,3.285,0,0,0-2.838,1.638L56,116.215a1.612,1.612,0,0,0,2.792,1.612l3.067-5.311,11.638,20.157H50.216l4.921-8.523a1.612,1.612,0,1,0-2.792-1.612l-5.955,10.315A2.607,2.607,0,0,0,46.7,135.9L88.722,182.96a2.614,2.614,0,0,0,1.947.872h0a2.615,2.615,0,0,0,1.946-.87l42.1-47.063a2.607,2.607,0,0,0,.315-3.047ZM94.114,132.673H79.075l11.638-20.158,11.638,20.158h-.14a1.612,1.612,0,1,0,0,3.224h.776L90.674,177.689,78.435,135.9H94.114a1.612,1.612,0,0,0,0-3.224Zm11.029-1.612L93.505,110.9h23.276Zm1.206,4.836H130.4L94.539,175.978Zm24.862-3.224H107.935l11.638-20.157ZM64.646,110.9H87.922L76.284,131.061ZM75.076,135.9l11.74,40.087L51.024,135.9Z" transform="translate(-7.574 -84.569)"/>
    <path id="Path_22" data-name="Path 22" class="cls-1" d="M355.761,387.5a1.616,1.616,0,0,0-.242-.133,15.737,15.737,0,0,1-2.8-1.588,1.612,1.612,0,1,0-1.88,2.619,17.88,17.88,0,0,0,1.555,1,15.063,15.063,0,0,0-7.078,8.351,15.064,15.064,0,0,0-7.077-8.35,15.063,15.063,0,0,0,7.077-8.35l.05.145a1.612,1.612,0,1,0,3.045-1.06c-.123-.351-.23-.716-.32-1.085l-.67-2.737a2.166,2.166,0,0,0-4.208,0l-.67,2.737a12.4,12.4,0,0,1-7.434,8.322,1.615,1.615,0,0,0-.242.133,2.278,2.278,0,0,0,0,3.791,1.6,1.6,0,0,0,.242.133,12.4,12.4,0,0,1,7.434,8.322l.67,2.737a2.166,2.166,0,0,0,4.208,0l.67-2.737a12.4,12.4,0,0,1,7.434-8.322,1.639,1.639,0,0,0,.242-.133,2.278,2.278,0,0,0,0-3.791Z" transform="translate(-233.611 -294.248)"/>
    <path id="Path_23" data-name="Path 23" class="cls-1" d="M426.591,79.47a1.6,1.6,0,0,0-.242-.133,5.35,5.35,0,0,1-3.295-3.655l-.338-1.38h0a1.887,1.887,0,0,0-1.837-1.441h0a1.887,1.887,0,0,0-1.837,1.442l-.338,1.38a5.35,5.35,0,0,1-3.295,3.655,1.61,1.61,0,0,0-.242.133,1.948,1.948,0,0,0,0,3.241,1.612,1.612,0,0,0,.242.133A5.349,5.349,0,0,1,418.7,86.5l.338,1.38a1.887,1.887,0,0,0,1.837,1.442h0a1.887,1.887,0,0,0,1.837-1.442l.338-1.38a5.35,5.35,0,0,1,3.295-3.655,1.6,1.6,0,0,0,.242-.133,1.948,1.948,0,0,0,0-3.242Zm-5.712,3.939a8.326,8.326,0,0,0-2.114-2.319,8.322,8.322,0,0,0,2.114-2.319,8.324,8.324,0,0,0,2.114,2.319A8.319,8.319,0,0,0,420.879,83.41Z" transform="translate(-296.796 -57.223)"/>
    <path id="Path_24" data-name="Path 24" class="cls-1" d="M42.684,18.673l.484,1.977a2.012,2.012,0,0,0,3.909,0l.484-1.977a8.526,8.526,0,0,1,5.115-5.707,1.6,1.6,0,0,0,.242-.133,2.093,2.093,0,0,0,0-3.483,1.6,1.6,0,0,0-.242-.133A8.526,8.526,0,0,1,47.56,3.511l-.484-1.977a2.012,2.012,0,0,0-3.909,0L42.683,3.51a8.524,8.524,0,0,1-5.114,5.707,1.6,1.6,0,0,0-.242.133,2.093,2.093,0,0,0,0,3.483,1.622,1.622,0,0,0,.242.133,8.525,8.525,0,0,1,5.115,5.707ZM45.122,6.281a11.282,11.282,0,0,0,4.247,4.811A11.284,11.284,0,0,0,45.122,15.9a11.285,11.285,0,0,0-4.247-4.811A11.284,11.284,0,0,0,45.122,6.281Z" transform="translate(0 0)"/>
  </g>
</svg>
